<svg width="64" height="64" viewBox="0 0 64 64" fill="none" xmlns="http://www.w3.org/2000/svg">
<g clip-path="url(#clip0_2_5)">
<rect width="64" height="64" rx="13" fill="#8166C4"/>
<path d="M53.5085 27.7843C53.4526 24.4646 51.1941 21.3714 47.143 19.069C43.1291 16.7842 37.793 15.5258 32.1191 15.5258C26.445 15.5258 21.1065 16.7842 17.0907 19.069C12.9844 21.4036 10.7283 24.5408 10.7386 27.9024L10.7374 28.3815C10.7368 28.6901 10.7356 29.137 10.735 29.6868C10.7332 31.1283 10.735 32.6059 10.7386 33.9598C10.749 37.3002 12.9959 40.4372 17.0646 42.7939C18.3922 43.5634 20.3609 44.6854 20.8051 44.9362L21.0573 45.0799L26.2555 42.492V48.2796L32.0954 51.6072L47.1443 43.0483C51.2493 40.7142 53.5103 37.5736 53.5103 34.2052L53.5085 27.7843ZM31.7685 45.1256V50.6655L26.9099 47.8992V42.3599L31.7685 45.1256ZM46.7658 42.5078L32.4222 50.6655V45.1256L47.143 36.7541C49.9338 35.1664 51.9013 33.1812 52.8535 30.9968V34.2064C52.8535 37.3282 50.7103 40.2656 46.8186 42.4779L46.7658 42.5078ZM26.2403 36.0778L26.2086 41.7822L21.3848 44.1825V38.8392L26.2403 36.0778ZM26.2628 35.1938C26.2464 35.1847 26.1473 35.1281 25.9845 35.0349C25.366 34.6818 23.7223 33.7449 22.5673 33.0747C21.5676 32.4951 20.7425 31.8406 20.1136 31.1295C20.739 30.4015 21.5762 29.7373 22.6031 29.1547C25.1307 27.7167 28.5103 26.9253 32.1184 26.9253C35.7264 26.9253 39.1042 27.7173 41.6337 29.1547C42.6715 29.7446 43.5143 30.4161 44.1402 31.1497C43.5113 31.8546 42.6891 32.4975 41.6957 33.0612L26.8674 41.4966L26.905 35.6303V35.5591L26.2628 35.1938ZM44.56 30.6291C43.8929 29.8742 43.0186 29.1857 41.9588 28.5818C39.3339 27.0891 35.8401 26.2667 32.1208 26.2667C28.4015 26.2667 24.906 27.0885 22.2829 28.5818C21.2329 29.1784 20.3646 29.8603 19.7011 30.6085C19.0734 29.7361 18.7538 28.8204 18.7502 27.8872C18.7441 25.9854 20.0735 24.1736 22.4943 22.7813L22.5393 22.7563C25.0864 21.3081 28.4884 20.5106 32.1191 20.5106C35.7495 20.5106 39.1535 21.3081 41.6987 22.7563L41.7036 22.7594C44.1572 24.1566 45.5085 25.9854 45.5085 27.9085C45.5085 28.8448 45.1895 29.7598 44.56 30.6291ZM20.7292 38.8373V44.1399C20.2922 43.8909 18.6413 42.9498 17.3927 42.2259C13.5349 39.9916 11.4046 37.0549 11.3943 33.9574C11.3912 32.867 11.3906 31.8467 11.39 30.9536C12.3343 33.135 14.289 35.1286 17.0646 36.7365C18.179 37.3836 19.695 38.2481 20.4228 38.6633L20.7292 38.8373Z" fill="white"/>
</g>
<defs>
<clipPath id="clip0_2_5">
<rect width="64" height="64" fill="white"/>
</clipPath>
</defs>
</svg>
