<svg width="750" height="750" viewBox="0 0 750 750" fill="none" xmlns="http://www.w3.org/2000/svg">
<g clip-path="url(#clip0_2_5)">
<rect width="750" height="750" rx="170" fill="#8166C4"/>
<path d="M627.053 325.597C626.397 286.695 599.931 250.446 552.457 223.464C505.419 196.69 442.886 181.943 376.396 181.943C309.903 181.943 247.342 196.69 200.282 223.464C152.161 250.823 125.722 287.587 125.843 326.982L125.829 332.596C125.822 336.212 125.808 341.45 125.801 347.892C125.779 364.785 125.801 382.1 125.843 397.967C125.965 437.112 152.296 473.874 199.976 501.492C215.534 510.508 238.605 523.657 243.81 526.596L246.765 528.28L307.681 497.953V565.777L376.118 604.772L552.472 504.472C600.578 477.12 627.074 440.315 627.074 400.842L627.053 325.597ZM372.287 528.816V593.736L315.35 561.318V496.405L372.287 528.816ZM548.036 498.138L379.948 593.736V528.816L552.457 430.712C585.162 412.107 608.219 388.842 619.376 363.244V400.856C619.376 437.44 594.262 471.863 548.655 497.788L548.036 498.138ZM307.503 422.787L307.133 489.635L250.603 517.763V455.147L307.503 422.787ZM307.767 412.427C307.575 412.32 306.414 411.658 304.506 410.566C297.257 406.428 277.996 395.448 264.46 387.594C252.746 380.802 243.076 373.132 235.707 364.799C243.035 356.267 252.847 348.484 264.88 341.656C294.5 324.805 334.106 315.531 376.387 315.531C418.669 315.531 458.252 324.813 487.895 341.656C500.057 348.57 509.934 356.439 517.269 365.035C509.898 373.296 500.263 380.83 488.621 387.436L314.852 486.288L315.293 417.542V416.708L307.767 412.427ZM522.187 358.935C514.369 350.088 504.124 342.021 491.705 334.943C460.944 317.451 420.001 307.812 376.416 307.812C332.83 307.812 291.867 317.444 261.128 334.943C248.823 341.935 238.648 349.925 230.872 358.693C223.516 348.47 219.771 337.739 219.729 326.803C219.657 304.517 235.237 283.285 263.605 266.968L264.132 266.676C293.981 249.704 333.849 240.358 376.396 240.358C418.94 240.358 458.83 249.704 488.657 266.676L488.714 266.712C517.467 283.085 533.303 304.517 533.303 327.052C533.303 338.025 529.565 348.748 522.187 358.935ZM242.92 455.125V517.264C237.799 514.347 218.453 503.318 203.821 494.834C158.612 468.652 133.648 434.237 133.527 397.938C133.491 385.161 133.484 373.204 133.477 362.738C144.542 388.3 167.449 411.664 199.976 430.506C213.035 438.09 230.801 448.22 239.33 453.086L242.92 455.125Z" fill="white"/>
</g>
<defs>
<clipPath id="clip0_2_5">
<rect width="750" height="750" fill="white"/>
</clipPath>
</defs>
</svg>
