<svg width="374" height="374" viewBox="0 0 374 374" fill="none" xmlns="http://www.w3.org/2000/svg">
<g clip-path="url(#clip0_2_5)">
<rect width="374" height="374" rx="90" fill="#8166C4"/>
<path d="M312.69 162.364C312.363 142.965 299.165 124.889 275.492 111.434C252.036 98.0826 220.853 90.7291 187.696 90.7291C154.538 90.7291 123.341 98.0826 99.8739 111.434C75.8777 125.077 62.6936 143.41 62.7539 163.055L62.7469 165.855C62.7433 167.658 62.7362 170.27 62.7326 173.482C62.722 181.906 62.7326 190.541 62.7539 198.453C62.8143 217.973 75.9451 236.305 99.7212 250.077C107.48 254.574 118.984 261.13 121.58 262.596L123.053 263.436L153.43 248.312V282.134L187.557 301.58L275.499 251.564C299.488 237.924 312.701 219.571 312.701 199.886L312.69 162.364ZM185.647 263.703V296.077L157.255 279.911V247.54L185.647 263.703ZM273.287 248.405L189.467 296.077V263.703L275.492 214.782C291.801 205.504 303.298 193.902 308.862 181.138V199.893C308.862 218.137 296.338 235.302 273.596 248.23L273.287 248.405ZM153.342 210.83L153.157 244.165L124.967 258.191V226.967L153.342 210.83ZM153.473 205.664C153.377 205.61 152.798 205.28 151.847 204.735C148.232 202.672 138.627 197.197 131.878 193.28C126.036 189.893 121.214 186.069 117.539 181.913C121.193 177.659 126.086 173.777 132.087 170.373C146.857 161.97 166.607 157.345 187.692 157.345C208.776 157.345 228.515 161.973 243.297 170.373C249.362 173.82 254.287 177.744 257.945 182.031C254.269 186.15 249.465 189.907 243.659 193.201L157.006 242.496L157.226 208.214V207.799L153.473 205.664ZM260.397 178.989C256.499 174.577 251.39 170.554 245.197 167.025C229.857 158.302 209.44 153.496 187.706 153.496C165.971 153.496 145.544 158.299 130.216 167.025C124.08 170.511 119.006 174.496 115.128 178.868C111.46 173.77 109.592 168.419 109.571 162.966C109.536 151.852 117.305 141.265 131.451 133.128L131.714 132.982C146.598 124.519 166.479 119.859 187.696 119.859C208.911 119.859 228.803 124.519 243.677 132.982L243.705 133.001C258.043 141.165 265.94 151.852 265.94 163.09C265.94 168.562 264.076 173.909 260.397 178.989ZM121.136 226.956V257.942C118.583 256.488 108.935 250.988 101.639 246.757C79.0947 233.701 66.6456 216.54 66.5852 198.439C66.5675 192.067 66.564 186.104 66.5604 180.885C72.0783 193.632 83.5012 205.283 99.7212 214.679C106.233 218.461 115.093 223.512 119.346 225.939L121.136 226.956Z" fill="white"/>
</g>
<defs>
<clipPath id="clip0_2_5">
<rect width="374" height="374" fill="white"/>
</clipPath>
</defs>
</svg>
