<svg xmlns="http://www.w3.org/2000/svg" viewBox="0 0 34 21">
  <g fill="none" fill-rule="nonzero">
    <path fill="#000" d="M30.5027419 0H3.00035451c-.11454362 0-.22928964 0-.34362882.00065377-.09665263.00067359-.19308058.00172359-.28950853.00429906-.21030362.00556698-.42240868.01771132-.63008097.0542434-.2109918.03716603-.40732915.09778868-.59886939.19323962C.9499651.3461632.77757282.46875566.62817629.61504245c-.1494613.1462868-.27471239.31474246-.37045214.49924529-.09754121.18747452-.15951904.37970377-.19722796.58637547C.02297147 1.90398679.01048077 2.11155.0048133 2.3171717c-.00259084.09438113-.00370207.18876226-.00433157.28312358C8.1e-7 2.71244717 8.1e-7 2.82451981 8.1e-7 2.93686981V18.056434c0 .11235 0 .2242265.00048092.3365963.0006295.0943613.00174073.1887424.00433157.2831236.00566747.2054414.01815817.4130046.0556829.6162687.0377089.206751.09968674.398901.19722795.5863953.09573975.1845029.22099084.3531764.37045214.4992453.14939653.1465245.32178882.2690972.51009051.3625868.19154024.0957085.38787759.1563509.59886939.1934972.20767229.0362943.41977735.0486566.63008097.0542236.09642795.0021396.1928559.0034075.28950853.0038434.11433918.0008716.2290852.0008716.34362882.0008716H30.5027419c.1143412 0 .2290892 0 .3434061-.0008716.09643-.0004359.19286-.0017038.2897292-.0038434.2098583-.005567.4219229-.0179293.6301032-.0542236.2107085-.0371463.4070863-.0977887.5986468-.1934972.1885041-.0934896.3603903-.2160623.5100945-.3625868.1492164-.1460689.2744655-.3147424.3704502-.4992453.0977618-.1874943.1596789-.3796443.1972056-.5863953.037547-.2032641.0497321-.4108273.0554198-.6162687.0026313-.0943812.0039288-.1887623.0043741-.2831236.0008886-.1123698.0008886-.2242444.0008886-.3365963V2.93686981c0-.11235 0-.22442264-.0008886-.33657453-.0004453-.09436132-.0017428-.18874245-.0043741-.28312358-.0056897-.2056217-.0178728-.41318491-.0554198-.61650849-.0375247-.2066717-.0994438-.39890095-.1972056-.58637547-.0959847-.18450283-.2212338-.3529585-.3704502-.49924529-.1497042-.14628679-.3215904-.26887924-.5100945-.3626066-.1915605-.09545094-.3879383-.15607359-.5986468-.19323962-.2081783-.03653208-.4202429-.04867642-.6301032-.0542434-.0968692-.00257547-.1932992-.00362547-.2897292-.00429906C30.7318311 0 30.6170831 0 30.5027419 0z"/>
    <path fill="#FFF" d="M30.5027419.69973585l.3383257.00063396c.0916511.00063396.1833042.00160472.2754633.00406132.1603104.00423962.3478389.01273868.5226399.0434066.1519489.02678491.279384.06751699.4016819.12845661.1207374.06004811.2313563.13873868.3279421.23313962.0969542.09503491.1774545.20348208.2396145.32296415.0619151.11876887.1032674.24290661.1304713.39271981.031252.16922831.0398949.35327548.0442892.51115189.0024674.08911132.0036819.17822264.0041292.26945377.0008501.11032925.0008501.22059906.0008501.33114623V18.056434c0 .1105471 0 .2206188-.0008704.3333056-.000427.0890915-.0016395.1782029-.0041291.2674727-.0043741.1576386-.0130149.3415868-.0446516.512816-.0268213.1477528-.0681513.2719104-.1304105.3912736-.0619798.1191849-.1423567.2275132-.2388879.3219538-.0971343.0950943-.2073889.1735471-.3295613.23415-.1213851.0606424-.2486016.1013368-.3990527.1278424-.1783411.0311038-.3737271.0396623-.5208789.0435651-.0925822.0020406-.184719.0032669-.2791006.0037047-.1124811.0008321-.2253629.0008321-.3378622.0008321H2.99588125c-.11120385 0-.22263036 0-.33585831-.0008519-.09231904-.000418-.18443566-.0016245-.2734959-.0036056-.15051181-.0039821-.34601928-.0125208-.52290506-.0434463-.15174449-.0267056-.27896097-.0673981-.40194506-.128833-.1210187-.0600679-.23119229-.1384415-.32836916-.2337141-.09642795-.0942227-.17656193-.2022142-.23851952-.3215774-.06201831-.1192443-.10351229-.2437783-.13079508-.3932943-.03153745-.1708925-.04020058-.3541076-.04453012-.5106765-.00247143-.0896462-.00350372-.1792726-.0040907-.2683839l-.0004453-.2630745V2.86741132l.00042506-.26251981c.00060722-.08964623.00163951-.17927264.00411094-.26883962.00432954-.15672736.01299267-.3400217.04479122-.51234057.02704193-.14816887.06851567-.27270283.13085784-.39254151.0614718-.11845189.14174747-.22658207.23868347-.32143868.09654939-.09453962.20708327-.17313113.32887315-.23375377.12166844-.06064245.24912579-.10135472.40087229-.12808019.17484145-.03074717.36249542-.03922642.52320868-.04348585.0916106-.0024368.1832212-.00340755.27414361-.0040217l.33946121-.00065377H30.5027419"/>
    <g fill="#000">
      <path d="M9.14612236 7.0608597c.28686304-.35118736.48152646-.8227285.43018525-1.30458736-.41992713.02043736-.93236761.27115953-1.22904549.62262226-.26638525.30097359-.50215807.79225868-.44069234 1.25391793.47138979.04002085.94234439-.23061962 1.23955258-.57195283M9.57095186 7.72295206c-.68457167-.03991189-1.26662487.38028028-1.59354275.38028028-.32709803 0-.82771576-.36016783-1.36917571-.35046028-.70474381.01013151-1.35866458.40014113-1.71629205 1.02043952-.7355789 1.24090189-.19411894 3.0815935.52119267 4.09223831.34737138.49999811.76601321 1.05053292 1.31763817 1.03075726.52119268-.02001736.72547865-.33031811 1.3590107-.33031811.63306651 0 .81708521.33031811 1.36879923.32031141.57214121-.01001264.92983142-.50024773 1.27719875-1.0007332.39850005-.5699717.56163209-1.12032623.57189224-1.1505385-.01026217-.01000669-1.10324993-.42040415-1.11338458-1.65099226-.01031884-1.03038877.85811769-1.52049906.89899027-1.55089358-.49041427-.70992878-1.25667644-.7899784-1.52232694-.81009085"/>
      <g>
        <path d="M15.53167125 6.32848824c1.48790516 0 2.52398747 1.00385746 2.52398747 2.46539604 0 1.46675689-1.05740212 2.47582868-2.56129764 2.47582868h-1.64739585v2.56421491h-1.19024357V6.32848824h2.87494959zm-1.68470805 3.96335378h1.36572261c1.03628674 0 1.62607807-.54607132 1.62607807-1.49274142 0-.94656905-.58979133-1.48752311-1.62074863-1.48752311H13.8469632v2.98026453zM18.36664494 12.27878674c0-.95710472.74928405-1.54480953 2.07790294-1.61764585l1.53034034-.08838623v-.42126594c0-.60857406-.41984415-.97265463-1.12115711-.97265463-.66441166 0-1.07892636.31201246-1.17978709.80099746h-1.08405339c.06375701-.98830557.92456067-1.7164667 2.30627566-1.7164667 1.35506371 0 2.22119681.7021766 2.22119681 1.7996366v3.7709284h-1.1000397v-.8998183h-.02644482c-.32410844.60857405-1.03095528.99342085-1.76424897.99342085-1.09471228 0-1.85998467-.66575944-1.85998467-1.64874566zm3.60824328-.49410227v-.43169858l-1.37638555.0831699c-.68552703.04685179-1.07339045.34331236-1.07339045.8114301 0 .47845132.40385378.79056283 1.02029638.79056283.80237812 0 1.42947962-.54095406 1.42947962-1.25346425zM24.1559047 15.84685711v-.91025094c.0848704.02076821.2761373.02076821.3718731.02076821.5313657 0 .8183684-.21840991.9936451-.78013019 0-.01043462.1010651-.33287972.1010651-.33809604L23.6032171 8.3621857h1.2433376l1.4136937 4.45233877h.0211154l1.4136957-4.45233877h1.2115634l-2.0938933 5.75777207c-.4780633 1.32640161-1.0307509 1.75288387-2.1892161 1.75288387-.0957337 0-.3827364-.01043462-.4676088-.02598453z"/>
      </g>
    </g>
  </g>
</svg>
