<svg width="296" height="190" fill="none" xmlns="http://www.w3.org/2000/svg"><g clip-path="url(#a)"><path fill="#E8E7E8" d="M.77 18.1h294.45v36.19H.77z"/><path d="M24.43 76.82V87h-1.54V76.82h1.54Zm4.98 10.33a2.96 2.96 0 0 1-2.79-1.83c-.27-.59-.4-1.3-.4-2.12 0-.83.13-1.53.4-2.12a2.97 2.97 0 0 1 2.79-1.81c.48 0 .86.07 1.15.23.3.16.52.34.68.55.16.2.28.4.37.55h.1v-3.78h1.48V87h-1.45v-1.19h-.13c-.09.16-.22.35-.38.56a2.15 2.15 0 0 1-1.82.78Zm.32-1.27c.43 0 .8-.11 1.09-.34.3-.23.52-.54.67-.95.16-.4.24-.87.24-1.4 0-.54-.08-1-.23-1.4-.15-.4-.38-.7-.67-.93-.3-.22-.66-.33-1.1-.33-.44 0-.82.11-1.11.34-.3.24-.53.55-.68.95-.15.4-.22.86-.22 1.36 0 .51.07.97.22 1.38.16.4.38.73.68.97.3.23.67.35 1.11.35Zm8.87 1.27c-.75 0-1.4-.16-1.94-.48a3.27 3.27 0 0 1-1.25-1.37 4.62 4.62 0 0 1-.44-2.07c0-.78.14-1.47.44-2.07.29-.6.7-1.06 1.23-1.4a3.74 3.74 0 0 1 3.11-.29 3.03 3.03 0 0 1 1.85 1.87c.19.48.28 1.07.28 1.76v.53H35.8v-1.11h4.61c0-.4-.08-.74-.24-1.04a1.8 1.8 0 0 0-1.67-.99c-.42 0-.78.1-1.1.31-.3.2-.54.47-.71.8a2.3 2.3 0 0 0-.25 1.05v.87c0 .52.09.95.27 1.3.18.37.43.64.76.83.32.18.7.28 1.14.28.28 0 .54-.04.77-.12a1.6 1.6 0 0 0 .99-.97l1.4.25c-.1.42-.31.78-.6 1.09-.3.3-.65.55-1.1.72-.43.17-.92.25-1.48.25Zm6.41-4.68V87h-1.48v-7.64h1.42v1.25h.1c.17-.4.45-.73.82-.98.38-.24.86-.37 1.43-.37.52 0 .98.11 1.37.33.39.22.7.54.9.97.22.42.33.95.33 1.58V87h-1.49v-4.68c0-.55-.14-.98-.43-1.3a1.53 1.53 0 0 0-1.19-.47c-.34 0-.65.08-.92.23a1.6 1.6 0 0 0-.63.65c-.15.29-.23.63-.23 1.04Zm10.45-3.1v1.19h-4.17v-1.2h4.17Zm-3.05-1.84h1.48v7.23c0 .29.05.5.13.65.09.14.2.24.34.3a1.74 1.74 0 0 0 .77.05l.2-.05.27 1.23c-.09.03-.21.07-.37.1a2.91 2.91 0 0 1-1.69-.15 1.88 1.88 0 0 1-.82-.68c-.2-.3-.31-.68-.31-1.14v-7.54ZM57.1 87v-7.64h1.48V87H57.1Zm.74-8.81a.94.94 0 0 1-.66-.26.84.84 0 0 1-.28-.63.94.94 0 0 1 .94-.89c.26 0 .48.09.67.26.18.18.27.39.27.63s-.09.45-.27.63a.93.93 0 0 1-.67.26Zm6.37 1.17v1.2h-4.31v-1.2h4.31ZM61.1 87v-8.52c0-.48.1-.87.32-1.19.2-.32.48-.55.83-.71.34-.16.71-.24 1.12-.24a3.4 3.4 0 0 1 1.24.2l-.35 1.2a7.04 7.04 0 0 0-.27-.06c-.1-.03-.24-.05-.4-.05-.36 0-.62.1-.77.27-.16.18-.23.44-.23.78V87h-1.49Zm4.67 0v-7.64h1.48V87h-1.48Zm.75-8.81a.94.94 0 0 1-.67-.26.84.84 0 0 1-.27-.63c0-.24.09-.45.27-.63.19-.17.41-.26.67-.26.26 0 .48.09.66.26.19.18.28.39.28.63s-.1.45-.28.63a.93.93 0 0 1-.66.26Zm6.03 8.96c-.76 0-1.4-.16-1.95-.48a3.27 3.27 0 0 1-1.25-1.37 4.62 4.62 0 0 1-.44-2.07c0-.78.15-1.47.44-2.07.3-.6.7-1.06 1.23-1.4a3.74 3.74 0 0 1 3.11-.29 3.03 3.03 0 0 1 1.85 1.87c.19.48.28 1.07.28 1.76v.53h-6.07v-1.11h4.62c0-.4-.08-.74-.24-1.04a1.8 1.8 0 0 0-1.68-.99c-.42 0-.78.1-1.1.31-.3.2-.54.47-.7.8a2.3 2.3 0 0 0-.26 1.05v.87c0 .52.1.95.27 1.3.18.37.44.64.76.83.33.18.7.28 1.14.28.28 0 .54-.04.77-.12a1.6 1.6 0 0 0 .99-.97l1.4.25c-.1.42-.3.78-.6 1.09-.29.3-.65.55-1.09.72-.43.17-.93.25-1.48.25Zm4.92-.15v-7.64h1.44v1.22h.08c.14-.41.38-.74.73-.97a2.1 2.1 0 0 1 1.2-.36 6.38 6.38 0 0 1 .64.03v1.43a3.04 3.04 0 0 0-.78-.09c-.35 0-.66.07-.94.22a1.66 1.66 0 0 0-.88 1.5V87h-1.49Zm10.06.1c-.27 0-.5-.1-.7-.3a.96.96 0 0 1-.3-.7c0-.27.1-.5.3-.7.2-.2.43-.29.7-.29.27 0 .5.1.7.3.2.19.3.42.3.69 0 .18-.05.35-.15.5a.95.95 0 0 1-.86.5Zm0-5.56c-.27 0-.5-.1-.7-.3a.96.96 0 0 1-.3-.7c0-.27.1-.5.3-.7.2-.19.43-.29.7-.29.27 0 .5.1.7.3.2.19.3.42.3.7 0 .17-.05.34-.15.5-.09.14-.2.26-.35.35a.95.95 0 0 1-.5.14Z" fill="#454348"/><rect x="22.67" y="101.03" width="76.26" height="6.03" rx="3.02" fill="#E8E7E8"/><rect x="94" y="78" width="10" height="10" rx="5" fill="#454348"/><rect x="108" y="78" width="10" height="10" rx="5" fill="#454348"/><rect x="122" y="78" width="10" height="10" rx="5" fill="#454348"/><rect x="136" y="78" width="10" height="10" rx="5" fill="#454348"/><rect x="150" y="78" width="10" height="10" rx="5" fill="#454348"/><rect x="164" y="78" width="10" height="10" rx="5" fill="#454348"/><rect x="178" y="78" width="10" height="10" rx="5" fill="#454348"/><rect x="192" y="78" width="10" height="10" rx="5" fill="#454348"/><rect x="206" y="78" width="10" height="10" rx="5" fill="#454348"/><rect x="220" y="78" width="10" height="10" rx="5" fill="#454348"/><rect x="22.67" y="110.08" width="119.29" height="6.03" rx="3.02" fill="#E8E7E8"/><rect x="22.67" y="149.29" width="119.29" height="15.08" rx="7.54" fill="#E8E7E8"/></g><rect x="1.27" y=".5" width="293.45" height="189" rx="15.5" stroke="#ABAAAD"/><defs><clipPath id="a"><rect x=".77" width="294.45" height="190" rx="16" fill="#fff"/></clipPath></defs></svg>