<svg xmlns="http://www.w3.org/2000/svg" viewBox="0 0 85 55">
  <defs>
    <radialGradient
      id="a"
      cx="35%"
      cy="4%"
      fx="35%"
      fy="4%"
      r="130%"
      gradientTransform="matrix(.50992 .6156 -.39833 .78806 .19 -.2)"
    >
      <stop stop-color="#41494B" offset="0%" />
      <stop stop-color="#1F2021" offset="100%" />
    </radialGradient>
  </defs>
  <g>
    <rect fill="url(#a)" width="85" height="55" rx="3" />

    <path d="M67.27 40.82h4.71v8.46h-4.71z" fill="#FF5F00" />
    <path
      d="M67.57 45.05c0-1.72.8-3.25 2.05-4.23a5.38 5.38 0 100 8.46 5.37 5.37 0 01-2.05-4.23z"
      fill="#EB001B"
    />
    <path
      d="M78.34 45.05a5.38 5.38 0 01-8.7 4.23 5.4 5.4 0 000-8.46 5.39 5.39 0 018.7 4.23z"
      fill="#F79E1B"
    />
    <path
      d="M51.86 8.74V6.3h.01l1.15 2.45h.13L54.3 6.3h.01v2.45h.76v-4h-.8l-1.18 2.6h-.01l-1.18-2.6h-.8v4h.76zm5.07 1.29l1.76-4.31h-.76l-.8 2.05-.8-2.05h-.76l1.22 2.87-.61 1.44h.75zm3.8-1.29c.54 0 .93-.1 1.16-.33.24-.23.35-.53.35-.91a.96.96 0 00-.59-.91v-.01c.3-.17.44-.42.44-.76 0-.3-.1-.55-.32-.76a1.2 1.2 0 00-.87-.31h-1.72v4h1.55zm.07-2.38h-.84v-.9h.84c.16 0 .29.04.38.12.09.07.13.19.13.34 0 .14-.04.25-.13.33a.57.57 0 01-.38.1zm.1 1.67h-.94V6.98h.95c.17 0 .3.05.4.14.1.09.15.21.15.38 0 .35-.18.53-.55.53zm2.73.71V7.08c0-.46.18-.69.53-.69a.7.7 0 01.24.05l.11-.72a.71.71 0 00-.9.32h-.02v-.32h-.71v3.02h.75zm2.28.09a1.26 1.26 0 00.56-.13.96.96 0 00.24-.2l.03-.05h.01v.3h.63V6.81c0-.4-.12-.7-.36-.9-.24-.2-.54-.29-.92-.29-.34 0-.62.08-.83.24-.21.17-.36.37-.43.63l.63.26a.9.9 0 01.2-.37c.1-.09.24-.13.44-.13.18 0 .3.03.4.1.08.05.12.13.12.22 0 .1-.04.16-.13.21-.09.05-.3.12-.66.2-.38.1-.64.2-.8.34-.16.14-.24.34-.24.6 0 .25.1.46.28.64.18.17.46.26.83.26zm.07-.64c-.3 0-.46-.1-.46-.31a.3.3 0 01.1-.21c.05-.07.18-.12.37-.17a3.46 3.46 0 00.6-.21.27.27 0 00.06-.07v.52c0 .13-.05.23-.16.32-.12.09-.29.13-.51.13zm2.9.55V6.9c0-.17.06-.31.16-.42.1-.1.25-.15.44-.15.2 0 .33.05.41.15.08.1.12.27.12.47v1.8h.76V6.76c0-.35-.1-.63-.3-.83-.19-.2-.45-.3-.8-.3-.15 0-.3.04-.45.11a1 1 0 00-.35.27h-.01v-.3h-.73v3.03h.76zm3.8.09c.16 0 .31-.04.46-.1a1 1 0 00.26-.18l.09-.1v.3h.71V4.57h-.75V6h-.01l-.08-.1a.99.99 0 00-.7-.28c-.35 0-.66.15-.92.43-.26.29-.4.68-.4 1.17 0 .49.12.87.37 1.16.24.3.56.44.97.44zm.11-.67a.6.6 0 01-.51-.24 1.12 1.12 0 01-.18-.69c0-.3.06-.54.18-.7.12-.15.3-.23.51-.23.2 0 .37.06.48.19.12.12.18.28.18.46v.55c0 .19-.06.34-.18.47a.63.63 0 01-.48.19zm3.13-1.84V4.9h.5v-.31h-1.35v.3h.51v1.44h.34zm1.05 0V5.25l.5 1.07h.05l.5-1.07v1.07h.32V4.58H78l-.5 1.13h-.01l-.5-1.13h-.35v1.74h.33z"
      fill="#FFF"
    />
  </g>
</svg>
