<svg xmlns="http://www.w3.org/2000/svg" fill="none" viewBox="0 0 252 101"><g clip-path="url(#a)"><path fill="#5F6368" d="M119.08 49.12v29.2h-9.25V6.25h24.54a22.3 22.3 0 0 1 15.92 6.26 19.87 19.87 0 0 1 6.6 15.17 20.1 20.1 0 0 1-6.6 15.3c-4.31 4.07-9.6 6.14-15.86 6.14h-15.35Zm0-34.02v25.17h15.52a12.1 12.1 0 0 0 9.14-3.74 12.26 12.26 0 0 0 .23-17.35l-.23-.23a11.94 11.94 0 0 0-9.14-3.8l-15.52-.05Zm59.14 12.3c6.84 0 12.24 1.84 16.2 5.46 3.97 3.67 5.93 8.67 5.93 15.05v30.35h-8.85v-6.84h-.4c-3.86 5.63-8.92 8.45-15.3 8.45-5.4 0-10-1.61-13.62-4.83a15.24 15.24 0 0 1-5.46-12.07c0-5.11 1.96-9.14 5.8-12.18 3.86-3.05 9.03-4.54 15.47-4.54 5.52 0 10 1.03 13.56 2.99V47.1a10.6 10.6 0 0 0-3.8-8.16 13.45 13.45 0 0 0-8.9-3.4c-5.17 0-9.25 2.2-12.3 6.56l-8.16-5.12c4.43-6.38 11.04-9.6 19.83-9.6Zm-11.96 35.8a7.46 7.46 0 0 0 3.05 6.04 11.3 11.3 0 0 0 7.19 2.4c3.9 0 7.64-1.54 10.4-4.3 3.04-2.87 4.6-6.27 4.6-10.17-2.88-2.3-6.9-3.45-12.07-3.45-3.74 0-6.9.92-9.43 2.7-2.47 1.84-3.74 4.08-3.74 6.78ZM251.15 29l-30.92 71.04h-9.54l11.5-24.83-20.35-46.15h10.06l14.65 35.4h.23l14.31-35.4 10.06-.05Z"/><path fill="#4285F4" d="M81.67 42.8c0-2.82-.23-5.63-.7-8.4H41.96v15.93h22.36a19.16 19.16 0 0 1-8.28 12.58v10.35h13.34c7.81-7.19 12.3-17.82 12.3-30.46Z"/><path fill="#34A853" d="M41.95 83.26c11.15 0 20.58-3.68 27.42-10L56.03 62.9c-3.73 2.53-8.5 3.97-14.08 3.97-10.8 0-19.94-7.3-23.21-17.07H5V60.5a41.44 41.44 0 0 0 36.95 22.76Z"/><path fill="#FBBC04" d="M18.74 49.81a24.97 24.97 0 0 1 0-15.86V23.32H5a41.03 41.03 0 0 0 0 37.12l13.74-10.63Z"/><path fill="#EA4335" d="M41.95 16.88a22.27 22.27 0 0 1 15.87 6.2L69.6 11.3A39.5 39.5 0 0 0 41.95.5 41.39 41.39 0 0 0 5 23.32L18.74 34c3.27-9.83 12.4-17.13 23.21-17.13Z"/></g><defs><clipPath id="a"><path fill="#fff" d="M0 0h251.15v100H0z" transform="translate(0 .5)"/></clipPath></defs></svg>
