<svg xmlns="http://www.w3.org/2000/svg" viewBox="0 0 133 30">
  <path d="M122.03 0C128.607 0 133 4.827 133 11.47V29.3h-5.3V11.732c0-3.854-2.994-6.56-6.68-6.56-4.049 0-7.123 3.066-7.123 7.191V29.3H108.4V.8h5.497v2.78C115.61 1.405 118.55 0 122.03 0zM91.305 29.192h-4.711C78.648 29.192 73 22.367 73 14.602 73 6.843 79.062 0 87.324 0 96.089 0 102.1 5.22 102.1 13.348v15.95h-5.13v-15.95c0-5.162-3.576-8.268-9.646-8.268-5.269 0-9.194 4.431-9.194 9.523 0 5.156 3.601 9.509 8.464 9.509h4.711v5.08zM48.198 8.181L41.448 29.3h-6.312L26.2.8h5.88l6.34 21.494L45.362.8h5.676l6.892 21.494L64.319.8H70.2l-8.991 28.5h-6.313zM11.431 30C4.814 30 .595 26.45.066 20.792l-.066-.7h5.353l.08.549c.43 2.936 2.493 4.448 6.21 4.448 3.674 0 5.78-1.641 5.78-4.146 0-2.449-1.531-3.286-6.448-4.266-1.187-.237-.955-.19-1.294-.26C3.618 15.16.912 13.244.912 8.267.912 3.313 5.331 0 11.538 0c5.629 0 9.97 3.356 10.41 8.476l.06.696h-5.296l-.08-.55c-.343-2.381-2.162-3.763-5.36-3.763-3.084 0-5.035 1.414-5.035 3.409 0 2.047 1.413 2.777 5.95 3.622 1.56.29 1.335.248 1.815.345 5.973 1.204 8.798 3.308 8.798 8.498C22.8 26.28 18.18 30 11.431 30z" fill="#13191A" fill-rule="nonzero" />
</svg>
