<svg xmlns="http://www.w3.org/2000/svg" width="406" height="264" fill="none"><path stroke="#A8A7AC" stroke-width=".5" d="M102.06 131.55H63.42c-3.25 0-5.92-2.15-5.92-4.78v-28c0-2.62 2.66-4.77 5.92-4.77h38.64c3.25 0 5.92 2.15 5.92 4.78v27.99c0 2.63-2.67 4.78-5.92 4.78Z" clip-rule="evenodd"/><path fill="#A8A7AC" fill-rule="evenodd" d="M76.72 117.67h12.04v-9.79H76.72v9.79Zm17-13.86h14.26v-.5H94.6V94H94v9.3h-.27c-2.74 0-4.96 1.8-4.96 4v.08H76.72v-.08c0-2.2-2.22-4-4.96-4h-.27V94h-.63v9.3H57.5v.5h14.26c2.4 0 4.34 1.58 4.34 3.5v5.22H57.5v.5h18.6v5.22c0 1.93-1.95 3.5-4.34 3.5H57.5v.5h13.36v9.3h.63v-9.3h.27c2.74 0 4.96-1.8 4.96-4v-.07h12.04v.07c0 2.2 2.22 4 4.96 4h.27v9.3h.62v-9.3h13.37v-.5H93.72c-2.4 0-4.34-1.57-4.34-3.5v-5.22h18.6v-.5h-18.6v-5.22c0-1.92 1.95-3.5 4.34-3.5Z" clip-rule="evenodd"/><rect width="404" height="262.06" x="1" y=".5" stroke="#A8A7AC" stroke-dasharray="5 5" rx="16.5"/></svg>