<?xml version="1.0" encoding="UTF-8"?>
<svg width="374px" height="374px" viewBox="0 0 374 374" version="1.1" xmlns="http://www.w3.org/2000/svg" xmlns:xlink="http://www.w3.org/1999/xlink">
    <title>logo</title>
    <defs>
        <radialGradient cx="50%" cy="17.9164543%" fx="50%" fy="17.9164543%" r="115.70414%" gradientTransform="translate(0.500000,0.179165),rotate(90.000000),scale(1.000000,1.258366),translate(-0.500000,-0.179165)" id="radialGradient-1">
            <stop stop-color="#8166C4" offset="0%"></stop>
            <stop stop-color="#4E3391" offset="100%"></stop>
        </radialGradient>
    </defs>
    <g id="logo" stroke="none" stroke-width="1" fill="none" fill-rule="evenodd">
        <path d="M155.957142,-5.8704318e-15 L218.042858,5.8704318e-15 C269.712531,-3.62113328e-15 290.357026,5.75518789 310.564434,16.5622276 C330.771841,27.3692674 346.630733,43.228159 357.437772,63.4355664 C368.244812,83.6429738 374,104.287469 374,155.957142 L374,218.042858 C374,269.712531 368.244812,290.357026 357.437772,310.564434 C346.630733,330.771841 330.771841,346.630733 310.564434,357.437772 C290.357026,368.244812 269.712531,374 218.042858,374 L155.957142,374 C104.287469,374 83.6429738,368.244812 63.4355664,357.437772 C43.228159,346.630733 27.3692674,330.771841 16.5622276,310.564434 C5.75518789,290.357026 2.41408885e-15,269.712531 -3.9136212e-15,218.042858 L3.9136212e-15,155.957142 C-2.41408885e-15,104.287469 5.75518789,83.6429738 16.5622276,63.4355664 C27.3692674,43.228159 43.228159,27.3692674 63.4355664,16.5622276 C83.6429738,5.75518789 104.287469,3.62113328e-15 155.957142,-5.8704318e-15 Z" id="Rectangle" fill="url(#radialGradient-1)"></path>
        <path d="M204.517182,277.305345 L173.758076,277.305345 C121.876976,277.305345 85,232.578743 85,181.691993 C85,130.844563 124.580069,86 178.524399,86 C235.752921,86 275,120.208478 275,173.474094 L275,278 L241.505155,278 L241.505155,173.474094 C241.505155,139.64571 218.156701,119.29101 178.524399,119.29101 C144.121993,119.29101 118.494845,148.328896 118.494845,181.698546 C118.494845,215.48761 142.006529,244.014335 173.758076,244.014335 L204.517182,244.014335 L204.517182,277.305345 L204.517182,277.305345 Z" id="Path" fill="#FFFFFF"></path>
        <path d="M178.518545,73 C211.016418,73 238.187548,83.0554215 257.288853,100.287058 C276.601552,117.709397 288,142.575341 288,172.983491 L288,290 L229.126043,290 L229.126043,172.983491 C229.126043,160.252189 225.03479,149.835643 216.775795,142.766209 C207.858452,135.133251 194.718998,131.465935 178.518545,131.465935 C165.169074,131.465935 153.498655,136.984116 145.076078,145.696127 C136.182381,154.895448 130.873957,167.606524 130.873957,181.198878 C130.873957,195.045659 135.673723,207.86018 143.898439,217.087684 C151.387696,225.49006 161.769849,230.840175 173.733313,230.840175 L217.237562,230.840175 L217.237562,289.306111 L173.733313,289.306111 C144.573472,289.306111 119.522311,277.107457 101.52667,257.819797 C83.0040817,237.967358 72,210.50968 72,181.192332 C72,151.90406 83.704629,124.387625 103.284553,104.455059 C122.180105,85.2191911 148.380894,73 178.518545,73 Z" id="Path" stroke-opacity="0.452141608" stroke="#FFFFFF" stroke-width="0.9" stroke-dasharray="2.7"></path>
    </g>
</svg>